HIERARCHY
ROOT Hips
{
	OFFSET 0.00000 0.00000 0.00000
	CHANNELS 6 Xposition Yposition Zposition Zrotation Yrotation Xrotation 
	JOINT LHipJoint
	{
		OFFSET 0 0 0
		CHANNELS 3 Zrotation Yrotation Xrotation
		JOINT LeftHip
		{
			OFFSET 1.30186 -1.90722 0.65024
			CHANNELS 3 Zrotation Yrotation Xrotation
			JOINT LeftKnee
			{
				OFFSET 2.56413 -7.04489 0.00000
				CHANNELS 3 Zrotation Yrotation Xrotation
				JOINT LeftAnkle
				{
					OFFSET 2.79321 -7.67428 0.00000
					CHANNELS 3 Zrotation Yrotation Xrotation
					JOINT LeftToe
					{
						OFFSET 0.15723 -0.43198 2.08537
						CHANNELS 3 Zrotation Yrotation Xrotation
						End Site
						{
							OFFSET 0.00000 -0.00000 1.07411
						}
					}
				}
			}
		}
	}
	JOINT RHipJoint
	{
		OFFSET 0 0 0
		CHANNELS 3 Zrotation Yrotation Xrotation
		JOINT RightHip
		{
			OFFSET -1.28627 -1.90723 0.65024
			CHANNELS 3 Zrotation Yrotation Xrotation
			JOINT RightKnee
			{
				OFFSET -2.56567 -7.04913 0.00000
				CHANNELS 3 Zrotation Yrotation Xrotation
				JOINT RightAnkle
				{
					OFFSET -2.75597 -7.57198 0.00000
					CHANNELS 3 Zrotation Yrotation Xrotation
					JOINT RightToe
					{
						OFFSET -0.17500 -0.48081 2.22901
						CHANNELS 3 Zrotation Yrotation Xrotation
						End Site
						{
							OFFSET -0.00000 -0.00000 1.14762
						}
					}
				}
			}
		}
	}
	JOINT lowerback
	{
		OFFSET 0 0 0
		CHANNELS 3 Zrotation Yrotation Xrotation
		JOINT Chest
		{
			OFFSET -0.04522 2.07467 -0.16566
			CHANNELS 3 Zrotation Yrotation Xrotation
			JOINT Chest2
			{
				OFFSET -0.01178 2.08825 -0.05393
				CHANNELS 3 Zrotation Yrotation Xrotation
				JOINT lowerneck
				{
					OFFSET 0 0 0
					CHANNELS 3 Zrotation Yrotation Xrotation
					JOINT Neck
					{
						OFFSET -0.05182 1.80489 0.16014
						CHANNELS 3 Zrotation Yrotation Xrotation
						JOINT Head
						{
							OFFSET 0.14739 1.78840 -0.33342
							CHANNELS 3 Zrotation Yrotation Xrotation
							End Site
							{
								OFFSET 0.04364 1.83899 -0.13460
							}
						}
					}
				}
				JOINT LeftCollar
				{
					OFFSET 0 0 0
					CHANNELS 3 Zrotation Yrotation Xrotation
					JOINT LeftShoulder
					{
						OFFSET 3.01264 1.29090 -0.06579
CHANNELS 3 Zrotation Xrotation Yrotation
						JOINT LeftElbow
						{
OFFSET 0 -5.556800 0.000000
CHANNELS 3 Zrotation Xrotation Yrotation
							JOINT LeftWrist
							{
OFFSET 0 -3.639790 -0.000000
CHANNELS 3 Zrotation Xrotation Yrotation
								JOINT lhand
								{
									OFFSET 0 0 0
CHANNELS 3 Zrotation Xrotation Yrotation
									JOINT LFingers
									{
OFFSET 0 -0.569420 -0.000000
CHANNELS 3 Zrotation Xrotation Yrotation
										End Site
										{
OFFSET 0 -0.459080 -0.000000
										}
									}
								}
								JOINT LThumb
								{
OFFSET 0 0.000000 0.000000
CHANNELS 3 Zrotation Xrotation Yrotation
									End Site
									{
OFFSET 0 -0.466090 0.466090
									}
								}
							}
						}
					}
				}
				JOINT RightCollar
				{
					OFFSET 0 0 0
					CHANNELS 3 Zrotation Yrotation Xrotation
					JOINT RightShoulder
					{
						OFFSET -3.15796 1.37283 -0.36748
CHANNELS 3 Zrotation Xrotation Yrotation
						JOINT RightElbow
						{
OFFSET 0 -5.343390 0.000000
CHANNELS 3 Zrotation Xrotation Yrotation
							JOINT RightWrist
							{
OFFSET 0 -3.651010 -0.000000
CHANNELS 3 Zrotation Xrotation Yrotation
								JOINT rhand
								{
									OFFSET 0 0 0
CHANNELS 3 Zrotation Xrotation Yrotation
									JOINT RFingers
									{
OFFSET 0 -0.694250 -0.000000
CHANNELS 3 Zrotation Xrotation Yrotation
										End Site
										{
OFFSET 0 -0.559720 -0.000000
										}
									}
								}
								JOINT RThumb
								{
OFFSET 0 0.000000 0.000000
CHANNELS 3 Zrotation Xrotation Yrotation
									End Site
									{
OFFSET 0 -0.568270 0.568270
									}
								}
							}
						}
					}
				}
			}
		}
	}
}
MOTION
Frames: 11
Frame Time: 0.008333333333333333
17.351700 16.989400 -12.078600 -3.561100 -73.380800 14.094400 0.000000 0.000000 0.000000 -7.717500 -8.836400 -46.567400 8.104000 16.195200 52.936400 0.891400 -8.341700 -16.969300 1.047500 -6.508300 -18.266700 0.000000 0.000000 0.000000 22.581900 2.879200 4.142800 -3.185800 -10.989900 32.245900 -0.379100 -13.074300 -22.624000 -1.943700 8.747900 -25.009700 1.623400 1.785700 5.989500 -0.460300 2.409800 2.697800 -1.532100 1.198800 -0.490900 -6.313900 -6.820800 -7.272500 7.393000 -9.295300 9.386000 2.683300 -4.412100 4.644600 -0.000000 -0.000000 0.000000 11.267900 8.360300 -15.497800 19.708300 -30.289300 5.383500 29.532400 1.723500 -17.428500 0.000000 0.000000 0.000000 -7.125000 0.000000 0.000000 1.574700 49.812900 -0.186900 -0.000000 -0.000000 0.000000 -17.145200 7.303800 7.065100 -21.680700 -32.614300 -6.412900 -13.741800 -13.730900 -37.100100 0.000000 0.000000 0.000000 7.125000 0.000000 -0.000000 10.700800 -7.339900 12.181800
17.191338 16.976694 -11.961976 -2.037374 -73.249122 12.358700 0.000000 0.000000 0.000000 -8.571888 -8.784284 -45.860265 8.275750 16.318334 53.549877 0.990793 -8.373412 -17.858358 1.282076 -7.175429 -20.236283 0.000000 0.000000 0.000000 21.840447 2.753419 3.082344 -3.828210 -11.922324 35.465937 -0.214657 -13.050677 -20.967322 -2.081788 9.032533 -25.898487 1.027093 1.706238 6.075605 -0.605340 2.269822 2.732011 -1.341152 1.124622 -0.527013 -6.570450 -7.013546 -7.266624 7.791786 -9.574386 9.363920 2.823551 -4.537612 4.688891 0.000000 0.000000 0.000000 11.818028 7.367248 -15.409343 19.678573 -30.253156 5.368436 28.584021 0.584140 -17.093915 0.000000 0.000000 0.000000 -7.125000 0.000000 0.000000 0.680099 49.279917 -0.073558 0.000000 0.000000 0.000000 -17.555026 7.276127 7.080269 -21.750637 -32.694111 -6.450621 -13.267722 -13.761671 -37.353570 0.000000 0.000000 0.000000 7.125000 0.000000 0.000000 10.981483 -7.506123 12.540289
17.038087 16.956552 -11.846502 -1.741572 -72.973611 11.749929 0.000000 0.000000 0.000000 -8.977744 -8.751363 -45.201247 8.423440 16.421921 54.073842 0.997542 -9.157958 -18.006009 1.250827 -7.084582 -19.968653 0.000000 0.000000 0.000000 21.509896 2.870345 1.684258 -4.705609 -13.034833 39.515557 -0.114659 -12.551072 -19.232019 -1.733448 8.269649 -23.546047 0.900988 1.517538 6.268442 -0.679647 2.011290 2.745053 -1.336304 0.993791 -0.630329 -6.889429 -7.111097 -7.190843 8.212375 -9.726086 9.354853 2.992732 -4.603429 4.721559 0.000000 0.000000 0.000000 12.226579 6.349555 -14.904003 19.627690 -30.191119 5.342934 27.776742 -0.162554 -16.548061 0.000000 0.000000 0.000000 -7.125000 0.000000 0.000000 -0.030778 48.543897 0.000047 0.000000 0.000000 0.000000 -17.938624 7.174516 7.127405 -21.776333 -32.723247 -6.464503 -13.113670 -13.911966 -37.490136 0.000000 0.000000 0.000000 7.125000 0.000000 0.000000 11.078894 -7.613379 12.673464
16.891504 16.922402 -11.726537 -0.540059 -72.704631 10.298682 0.000000 0.000000 0.000000 -9.702553 -8.715644 -44.627463 8.563128 16.518092 54.566450 0.961280 -10.179618 -17.849883 0.994603 -6.342236 -17.782187 0.000000 0.000000 0.000000 20.735673 2.869478 0.112886 -5.671752 -14.088524 43.623003 -0.010226 -11.862501 -16.974180 -1.226472 7.016847 -19.768114 0.615790 1.378474 6.442293 -0.881969 1.805943 2.775096 -1.375327 0.888903 -0.704232 -7.069890 -7.156798 -7.198804 8.570496 -9.815090 9.391712 3.122913 -4.634633 4.768421 0.000000 0.000000 0.000000 12.786745 5.030397 -14.623216 19.438664 -29.959993 5.248184 29.109497 1.085900 -17.317918 0.000000 0.000000 0.000000 -7.125000 0.000000 0.000000 1.169343 49.619348 -0.140897 0.000000 0.000000 0.000000 -18.286605 7.049237 7.199453 -21.853524 -32.811041 -6.506324 -13.147976 -14.363697 -37.295022 0.000000 0.000000 0.000000 7.125000 0.000000 0.000000 11.037596 -7.428483 12.593748
16.739899 16.886588 -11.618078 2.387586 -72.708701 7.125463 0.000000 0.000000 0.000000 -11.073985 -8.370364 -43.916511 8.692570 16.605551 55.020389 0.954820 -10.920605 -17.933875 0.888787 -6.008632 -16.809631 0.000000 0.000000 0.000000 19.379948 3.146658 -1.503399 -6.798673 -15.143390 48.079445 0.136600 -11.538019 -14.253364 -0.999923 6.359058 -17.831253 -0.474515 1.426248 6.565673 -1.162913 1.794671 2.933143 -1.053243 0.874427 -0.635510 -7.253845 -7.319695 -7.355666 8.910319 -10.042896 9.329712 3.231972 -4.731391 4.821666 0.000000 0.000000 0.000000 13.307898 3.408275 -14.503661 19.311433 -29.803795 5.184751 29.983247 2.823180 -19.089508 0.000000 0.000000 0.000000 -7.125000 0.000000 0.000000 1.781576 51.750409 -0.297515 0.000000 0.000000 0.000000 -18.770371 6.813720 7.137296 -21.942655 -32.912066 -6.554658 -12.906027 -14.714050 -36.982861 0.000000 0.000000 0.000000 7.125000 0.000000 0.000000 11.128658 -7.082634 12.642931
16.590391 16.850508 -11.520569 4.953494 -72.614310 4.256570 0.000000 0.000000 0.000000 -12.344089 -7.834068 -43.240183 8.837453 16.701728 55.525919 0.969639 -11.512902 -18.182294 0.958800 -6.233540 -17.463970 0.000000 0.000000 0.000000 18.258012 3.587717 -3.202694 -8.051489 -16.139632 52.720027 0.236298 -11.290705 -11.926323 -0.774459 5.592459 -15.613188 -1.594961 1.437587 6.806430 -1.336632 1.728909 3.079418 -0.603532 0.830241 -0.645868 -7.600374 -7.569642 -7.331767 9.244462 -10.361625 9.052604 3.365476 -4.885908 4.795637 0.000000 0.000000 0.000000 13.741548 1.738062 -14.565451 19.251513 -29.729960 5.155074 30.644428 3.709882 -19.695326 0.000000 0.000000 0.000000 -7.125000 0.000000 0.000000 2.371183 52.553813 -0.437634 0.000000 0.000000 0.000000 -19.452231 6.556128 7.190616 -22.035630 -33.017212 -6.605275 -12.349103 -14.865527 -36.676884 0.000000 0.000000 0.000000 7.125000 0.000000 0.000000 11.389203 -6.691416 12.881858
16.449754 16.810334 -11.426343 7.082907 -72.283296 1.853286 0.000000 0.000000 0.000000 -13.460244 -7.404241 -42.651708 8.994563 16.803974 56.071001 0.989757 -12.180271 -18.498807 1.001208 -6.367359 -17.854176 0.000000 0.000000 0.000000 17.248844 3.821879 -5.197965 -9.399240 -17.041175 57.436647 0.245282 -10.722295 -10.558136 -0.473393 4.368877 -12.123758 -2.576480 1.273227 7.142747 -1.481274 1.430037 3.135664 -0.187614 0.671784 -0.792535 -7.836976 -7.673682 -7.108057 9.471020 -10.485930 8.668807 3.473953 -4.954909 4.676521 0.000000 0.000000 0.000000 14.127761 0.205466 -14.434868 19.188444 -29.652190 5.123796 31.614521 4.147928 -18.839225 0.000000 0.000000 0.000000 -7.125000 0.000000 0.000000 3.504460 51.778230 -0.580111 0.000000 0.000000 0.000000 -20.076746 6.233272 7.514753 -22.180514 -33.180261 -6.684426 -11.755447 -14.796368 -36.276509 0.000000 0.000000 0.000000 7.125000 0.000000 0.000000 11.662100 -6.204842 13.115169
16.310062 16.766564 -11.338601 8.710084 -71.960016 -0.067965 0.000000 0.000000 0.000000 -14.389002 -6.853532 -42.081991 9.149854 16.902958 56.606633 0.979229 -13.014875 -18.631307 0.833881 -5.807132 -16.231048 0.000000 0.000000 0.000000 16.378353 3.997957 -7.312081 -10.811882 -17.826974 62.150279 0.208485 -10.041738 -10.064535 -0.239629 3.099422 -8.559696 -3.437177 1.142613 7.419546 -1.654179 1.180200 3.238579 0.131085 0.537396 -0.848448 -7.751208 -7.722683 -6.982920 9.604802 -10.557124 8.313572 3.504374 -4.989953 4.556602 0.000000 0.000000 0.000000 14.709609 -1.355858 -14.768571 19.264120 -29.745510 5.161306 32.458799 4.279342 -18.399699 0.000000 0.000000 0.000000 -7.125000 0.000000 0.000000 4.438291 51.443457 -0.706490 0.000000 0.000000 0.000000 -20.574457 5.927576 8.016204 -22.498672 -33.535349 -6.859600 -11.119457 -14.910681 -35.994629 0.000000 0.000000 0.000000 7.125000 0.000000 0.000000 11.972704 -5.830521 13.409751
16.165413 16.724843 -11.253413 10.455917 -71.689367 -2.137648 0.000000 0.000000 0.000000 -15.386220 -6.116717 -41.432687 9.262968 16.973922 56.995174 0.953482 -13.821137 -18.659153 0.621332 -5.036186 -14.013620 0.000000 0.000000 0.000000 15.455814 4.191463 -9.396558 -12.269618 -18.489896 66.827305 0.167190 -9.462066 -9.971706 -0.189185 2.799676 -7.721666 -4.347982 1.086740 7.626467 -1.892498 1.023505 3.425237 0.405601 0.444816 -0.774790 -7.487941 -7.801973 -7.025037 9.744235 -10.685706 8.038673 3.496764 -5.042447 4.485356 0.000000 0.000000 0.000000 15.514870 -3.210508 -15.719746 19.363298 -29.867621 5.210560 32.735851 3.966340 -18.554454 0.000000 0.000000 0.000000 -7.125000 0.000000 0.000000 4.709872 51.673355 -0.775451 0.000000 0.000000 0.000000 -21.008501 5.672723 8.550600 -22.927255 -34.008518 -7.097855 -10.440777 -15.239575 -36.115159 0.000000 0.000000 0.000000 7.125000 0.000000 0.000000 12.346033 -5.844757 13.850357
16.021303 16.693208 -11.167052 13.051751 -71.317108 -5.186544 0.000000 0.000000 0.000000 -16.755477 -5.412821 -40.462427 9.320712 17.009745 57.192873 0.970848 -14.314260 -18.940280 0.567068 -4.822845 -13.403988 0.000000 0.000000 0.000000 14.164314 4.155894 -11.357783 -13.750971 -19.027559 71.434086 0.130864 -8.966646 -9.964922 -0.287884 3.436973 -9.499075 -5.601306 0.981728 8.130495 -2.111969 0.746084 3.557714 0.896690 0.291804 -0.913080 -7.674874 -7.841507 -6.913413 10.101343 -10.755296 7.882566 3.635456 -5.072210 4.456068 0.000000 0.000000 0.000000 16.123859 -5.023572 -16.354963 19.359979 -29.863507 5.208840 32.465464 3.649797 -18.619316 0.000000 0.000000 0.000000 -7.125000 0.000000 0.000000 4.421201 51.694969 -0.730240 0.000000 0.000000 0.000000 -21.608448 5.432839 9.188192 -23.298782 -34.413568 -7.306591 -9.755101 -15.320265 -36.419906 0.000000 0.000000 0.000000 7.125000 0.000000 0.000000 12.738785 -6.039647 14.351268
15.874697 16.668749 -11.063396 19.612356 -70.944505 -12.246780 0.000000 0.000000 0.000000 -19.671340 -4.523812 -38.934046 9.322755 17.011046 57.199901 0.994575 -14.777338 -19.264043 0.350676 -3.782153 -10.467458 0.000000 0.000000 0.000000 11.088140 3.963680 -13.040033 -15.236251 -19.441274 75.943185 0.051573 -7.967367 -10.221184 -0.257454 3.262121 -9.009619 -8.088726 1.000000 8.808428 -2.605603 0.481762 3.703348 1.786686 0.132060 -1.123734 -8.200432 -7.841499 -6.749550 10.485174 -10.755058 7.885914 3.841478 -5.074998 4.479866 0.000000 0.000000 0.000000 16.602780 -6.780737 -16.799820 19.376807 -29.884250 5.217254 32.786329 3.198063 -18.529495 0.000000 0.000000 0.000000 -7.125000 0.000000 0.000000 4.765220 51.654741 -0.782437 0.000000 0.000000 0.000000 -22.606705 5.196612 10.471255 -23.755879 -34.904632 -7.566588 -8.991900 -15.484593 -36.243922 0.000000 0.000000 0.000000 7.125000 0.000000 0.000000 13.128590 -5.759558 14.755069
